<svg version="1.1" id="Layer_1" xmlns="http://www.w3.org/2000/svg" xmlns:xlink="http://www.w3.org/1999/xlink" x="0px" y="0px"
	 width="100%" viewBox="0 0 128 128" enable-background="new 0 0 128 128" xml:space="preserve">
<path fill="#FDFDFD" opacity="1.000000" stroke="none" 
	d="
M74.000000,129.000000 
	C49.333332,129.000000 25.166666,129.000000 1.000000,129.000000 
	C1.000000,86.333336 1.000000,43.666668 1.000000,1.000000 
	C43.666668,1.000000 86.333336,1.000000 129.000000,1.000000 
	C129.000000,43.666668 129.000000,86.333336 129.000000,129.000000 
	C110.833336,129.000000 92.666664,129.000000 74.000000,129.000000 
M76.433006,11.731635 
	C66.938469,11.732493 57.443146,11.660983 47.949696,11.763241 
	C42.825104,11.818439 40.206886,14.366674 40.109276,19.397785 
	C39.976822,26.224586 39.938652,33.059872 40.130180,39.883938 
	C40.255199,44.338383 42.711109,47.086109 47.334484,47.121597 
	C59.160263,47.212372 70.987762,47.215393 82.813408,47.115837 
	C87.186256,47.079021 89.689491,44.436577 89.837822,40.232883 
	C90.090240,33.079342 90.071442,25.905596 89.851326,18.750040 
	C89.721542,14.530907 87.265709,12.022976 82.900513,11.773351 
	C81.073830,11.668890 79.237099,11.740222 76.433006,11.731635 
M8.071794,104.427834 
	C8.071873,105.593796 8.070365,106.759758 8.072287,107.925720 
	C8.086046,116.277122 10.026313,118.255966 18.270844,118.265457 
	C28.598013,118.277344 38.925457,118.311119 49.252304,118.251961 
	C55.510471,118.216110 57.870632,115.767670 57.917091,109.401611 
	C57.962063,103.238945 58.002907,97.074448 57.903088,90.913071 
	C57.815331,85.496468 55.290012,82.902031 49.966602,82.863403 
	C38.640614,82.781235 27.313162,82.779274 15.987213,82.864418 
	C10.688260,82.904243 8.206796,85.520889 8.091145,90.957581 
	C8.002603,95.119896 8.072414,99.285583 8.071794,104.427834 
M117.597076,117.795471 
	C119.039474,115.373764 121.500198,113.042976 121.726112,110.512665 
	C122.314804,103.919144 122.019730,97.236313 121.892342,90.592644 
	C121.794998,85.516006 119.208008,82.909576 114.176682,82.869011 
	C102.712898,82.776581 91.247383,82.779068 79.783562,82.869469 
	C74.962036,82.907494 72.241180,85.444099 72.124985,90.132790 
	C71.952164,97.106880 71.932953,104.092690 72.133911,111.065285 
	C72.262466,115.525688 74.796913,118.212524 79.387238,118.219414 
	C91.843887,118.238098 104.300766,118.103455 117.597076,117.795471 
M99.125366,62.213009 
	C88.860527,62.213009 78.595680,62.213009 67.821159,62.213009 
	C67.821159,58.123810 67.821159,54.562771 67.821159,51.042171 
	C65.697777,51.042171 64.091034,51.042171 61.953865,51.042171 
	C61.953865,54.813168 61.953865,58.367790 61.953865,62.352554 
	C51.039577,62.352554 40.654308,62.352554 30.363415,62.352554 
	C30.363415,68.076576 30.363415,73.336647 30.363415,78.691360 
	C32.243542,78.691360 33.836193,78.691360 35.901001,78.691360 
	C35.901001,75.092361 35.901001,71.689377 35.901001,68.244324 
	C55.555794,68.244324 74.735138,68.244324 94.379288,68.244324 
	C94.379288,71.964569 94.379288,75.360130 94.379288,78.991737 
	C96.446327,78.859131 98.029579,78.757561 99.779518,78.645294 
	C99.779518,73.152275 99.779518,68.023422 99.125366,62.213009 
z"/>
<path fill="#070707" opacity="1.000000" stroke="none" 
	d="
M76.918968,11.731632 
	C79.237099,11.740222 81.073830,11.668890 82.900513,11.773351 
	C87.265709,12.022976 89.721542,14.530907 89.851326,18.750040 
	C90.071442,25.905596 90.090240,33.079342 89.837822,40.232883 
	C89.689491,44.436577 87.186256,47.079021 82.813408,47.115837 
	C70.987762,47.215393 59.160263,47.212372 47.334484,47.121597 
	C42.711109,47.086109 40.255199,44.338383 40.130180,39.883938 
	C39.938652,33.059872 39.976822,26.224586 40.109276,19.397785 
	C40.206886,14.366674 42.825104,11.818439 47.949696,11.763241 
	C57.443146,11.660983 66.938469,11.732493 76.918968,11.731632 
M47.161850,32.428169 
	C47.161850,34.867657 47.161850,37.307140 47.161850,39.840485 
	C59.276768,39.840485 70.840340,39.840485 82.466461,39.840485 
	C82.466461,32.746883 82.466461,25.896984 82.466461,19.206524 
	C70.536880,19.206524 58.981705,19.206524 47.161850,19.206524 
	C47.161850,23.517948 47.161850,27.485889 47.161850,32.428169 
z"/>
<path fill="#070707" opacity="1.000000" stroke="none" 
	d="
M8.071794,103.938797 
	C8.072414,99.285583 8.002603,95.119896 8.091145,90.957581 
	C8.206796,85.520889 10.688260,82.904243 15.987213,82.864418 
	C27.313162,82.779274 38.640614,82.781235 49.966602,82.863403 
	C55.290012,82.902031 57.815331,85.496468 57.903088,90.913071 
	C58.002907,97.074448 57.962063,103.238945 57.917091,109.401611 
	C57.870632,115.767670 55.510471,118.216110 49.252304,118.251961 
	C38.925457,118.311119 28.598013,118.277344 18.270844,118.265457 
	C10.026313,118.255966 8.086046,116.277122 8.072287,107.925720 
	C8.070365,106.759758 8.071873,105.593796 8.071794,103.938797 
M15.164343,92.751053 
	C15.164343,98.823395 15.164343,104.895737 15.164343,110.792603 
	C27.460516,110.792603 39.017544,110.792603 50.553543,110.792603 
	C50.553543,103.705490 50.553543,96.968651 50.553543,89.926376 
	C39.317165,89.926376 28.362001,89.889610 17.408485,90.006821 
	C16.656332,90.014877 15.916496,91.174072 15.164343,92.751053 
z"/>
<path fill="#070707" opacity="1.000000" stroke="none" 
	d="
M117.177315,117.912537 
	C104.300766,118.103455 91.843887,118.238098 79.387238,118.219414 
	C74.796913,118.212524 72.262466,115.525688 72.133911,111.065285 
	C71.932953,104.092690 71.952164,97.106880 72.124985,90.132790 
	C72.241180,85.444099 74.962036,82.907494 79.783562,82.869469 
	C91.247383,82.779068 102.712898,82.776581 114.176682,82.869011 
	C119.208008,82.909576 121.794998,85.516006 121.892342,90.592644 
	C122.019730,97.236313 122.314804,103.919144 121.726112,110.512665 
	C121.500198,113.042976 119.039474,115.373764 117.177315,117.912537 
M113.226494,111.121925 
	C113.753250,110.618561 114.730156,110.122490 114.738434,109.610741 
	C114.842575,103.176369 114.806770,96.739731 114.806770,90.137573 
	C102.763504,90.137573 91.198898,90.137573 79.507103,90.137573 
	C79.507103,97.218651 79.507103,104.078377 79.507103,111.137993 
	C90.657455,111.137993 101.463470,111.137993 113.226494,111.121925 
z"/>
<path fill="#111111" opacity="1.000000" stroke="none" 
	d="
M99.452438,62.553795 
	C99.779518,68.023422 99.779518,73.152275 99.779518,78.645294 
	C98.029579,78.757561 96.446327,78.859131 94.379288,78.991737 
	C94.379288,75.360130 94.379288,71.964569 94.379288,68.244324 
	C74.735138,68.244324 55.555794,68.244324 35.901001,68.244324 
	C35.901001,71.689377 35.901001,75.092361 35.901001,78.691360 
	C33.836193,78.691360 32.243542,78.691360 30.363415,78.691360 
	C30.363415,73.336647 30.363415,68.076576 30.363415,62.352554 
	C40.654308,62.352554 51.039577,62.352554 61.953865,62.352554 
	C61.953865,58.367790 61.953865,54.813168 61.953865,51.042171 
	C64.091034,51.042171 65.697777,51.042171 67.821159,51.042171 
	C67.821159,54.562771 67.821159,58.123810 67.821159,62.213009 
	C78.595680,62.213009 88.860527,62.213009 99.452438,62.553795 
z"/>
<path fill="#FBFBFB" opacity="1.000000" stroke="none" 
	d="
M47.161850,31.941002 
	C47.161850,27.485889 47.161850,23.517948 47.161850,19.206524 
	C58.981705,19.206524 70.536880,19.206524 82.466461,19.206524 
	C82.466461,25.896984 82.466461,32.746883 82.466461,39.840485 
	C70.840340,39.840485 59.276768,39.840485 47.161850,39.840485 
	C47.161850,37.307140 47.161850,34.867657 47.161850,31.941002 
z"/>
<path fill="#FBFBFB" opacity="1.000000" stroke="none" 
	d="
M15.167637,92.274490 
	C15.916496,91.174072 16.656332,90.014877 17.408485,90.006821 
	C28.362001,89.889610 39.317165,89.926376 50.553543,89.926376 
	C50.553543,96.968651 50.553543,103.705490 50.553543,110.792603 
	C39.017544,110.792603 27.460516,110.792603 15.164343,110.792603 
	C15.164343,104.895737 15.164343,98.823395 15.167637,92.274490 
z"/>
<path fill="#FBFBFB" opacity="1.000000" stroke="none" 
	d="
M112.747986,111.129959 
	C101.463470,111.137993 90.657455,111.137993 79.507103,111.137993 
	C79.507103,104.078377 79.507103,97.218651 79.507103,90.137573 
	C91.198898,90.137573 102.763504,90.137573 114.806770,90.137573 
	C114.806770,96.739731 114.842575,103.176369 114.738434,109.610741 
	C114.730156,110.122490 113.753250,110.618561 112.747986,111.129959 
z"/>
</svg>